# xmcd
# 
# Track frame offsets:
#     150
#     12516
#     33586
#     49983
#     65211
#     78923
#     95178
#     107872
#     126287
#     138531
#     159095
#     173347
# 
# Disc length: 2477
# 
# Revision: 1
# Processed by: cddbd v1.5.2PL0 Copyright (c) Steve Scherf et al.
# Submitted via: fre:ac v1.1beta1pre4
# 
DISCID=a409ab0c
DTITLE=Zane Williams - Hurry Home
DYEAR=2006
DGENRE=Texas Country
TTITLE0=Livin' in the Good Ol' Days
TTITLE1=The Distance Between
TTITLE2=Back Porch Band
TTITLE3=Home Sweet Home
TTITLE4=You Don't Know Jack
TTITLE5=Just Like a Country Song
TTITLE6=Five Star Service
TTITLE7=Hurry Home
TTITLE8=Start with Amazing Grace
TTITLE9=Workin' Man Like You
TTITLE10=Sleepy Angel
TTITLE11=Worst Case Scenario
EXTD=
EXTT0=
EXTT1=
EXTT2=
EXTT3=
EXTT4=
EXTT5=
EXTT6=
EXTT7=
EXTT8=
EXTT9=
EXTT10=
EXTT11=
PLAYORDER=
